<svg xmlns="http://www.w3.org/2000/svg" version="1.1" xmlns:xlink="http://www.w3.org/1999/xlink" xmlns:svgjs="http://svgjs.com/svgjs" width="1440" height="560" preserveAspectRatio="none" viewBox="0 0 1440 560"><g mask="url(&quot;#SvgjsMask1000&quot;)" fill="none"><rect width="1440" height="560" x="0" y="0" fill="#1e3266"></rect><path d="M1512 560L0 560 L0 295.9Q62.3 286.19, 72 348.49Q90.59 295.08, 144 313.67Q186.29 283.96, 216 326.25Q256.72 246.97, 336 287.69Q406.68 238.37, 456 309.05Q515.31 296.36, 528 355.67Q551.99 307.65, 600 331.64Q680.88 292.52, 720 373.4Q727.09 308.49, 792 315.57Q813.39 264.96, 864 286.35Q907.41 257.76, 936 301.18Q986.94 280.13, 1008 331.07Q1019.18 270.25, 1080 281.43Q1121.83 251.26, 1152 293.09Q1217.2 238.29, 1272 303.5Q1363.77 275.27, 1392 367.05Q1430.78 285.83, 1512 324.61z" fill="#182f5d"></path><path d="M1512 560L0 560 L0 373.03Q54.35 355.38, 72 409.73Q141.23 358.96, 192 428.18Q230.12 346.3, 312 384.42Q363.31 363.74, 384 415.05Q450.15 361.2, 504 427.35Q536.9 340.25, 624 373.15Q649.23 326.38, 696 351.61Q737.06 320.67, 768 361.72Q836.95 310.67, 888 379.62Q969.88 341.5, 1008 423.38Q1036.64 380.02, 1080 408.66Q1107.97 364.63, 1152 392.6Q1236.75 357.35, 1272 442.1Q1292.89 342.99, 1392 363.88Q1457.41 309.29, 1512 374.71z" fill="#25467d"></path><path d="M1488 560L0 560 L0 450.08Q53.93 384.01, 120 437.94Q190.26 436.2, 192 506.46Q200.3 442.75, 264 451.05Q286.38 401.44, 336 423.82Q429.12 396.94, 456 490.06Q479.31 441.37, 528 464.68Q556.35 421.03, 600 449.38Q690.7 420.08, 720 510.78Q742.87 461.65, 792 484.52Q836.23 408.75, 912 452.97Q935.41 404.38, 984 427.8Q1026.25 398.05, 1056 440.3Q1123.78 388.08, 1176 455.86Q1257.95 417.81, 1296 499.76Q1315.47 447.23, 1368 466.7Q1437.2 415.9, 1488 485.11z" fill="#356cb1"></path><path d="M1536 560L0 560 L0 562.69Q36.13 478.82, 120 514.94Q209.63 484.58, 240 574.21Q286.58 500.79, 360 547.36Q377.96 493.32, 432 511.27Q458.81 466.07, 504 492.88Q597.71 466.59, 624 560.3Q642.63 506.93, 696 525.56Q721.87 479.43, 768 505.3Q822.91 488.22, 840 543.13Q893.84 476.97, 960 530.81Q1000.24 451.05, 1080 491.29Q1127.4 466.7, 1152 514.1Q1199.41 489.51, 1224 536.93Q1263.04 455.97, 1344 495.01Q1385.88 464.89, 1416 506.77Q1516.36 487.13, 1536 587.48z" fill="white"></path></g><defs><mask id="SvgjsMask1000"><rect width="1440" height="560" fill="#ffffff"></rect></mask></defs></svg>